<?xml version="1.0" encoding="utf-8"?>
<!-- Generator: Adobe Illustrator 16.0.0, SVG Export Plug-In . SVG Version: 6.00 Build 0)  -->
<!DOCTYPE svg PUBLIC "-//W3C//DTD SVG 1.1//EN" "http://www.w3.org/Graphics/SVG/1.1/DTD/svg11.dtd">
<svg version="1.1" id="Layer_1" xmlns="http://www.w3.org/2000/svg" xmlns:xlink="http://www.w3.org/1999/xlink" x="0px" y="0px"
	 width="657.744px" height="278.076px" viewBox="0 0 657.744 278.076" enable-background="new 0 0 657.744 278.076"
	 xml:space="preserve">
<path fill-rule="evenodd" clip-rule="evenodd" fill="#02306F" d="M73.379,166.609c-0.526,0.074-1.121,0.016-1.57,0.244
	c-4.356,2.207-9.296,2.813-13.821,4.962c1.974,8.498,5.668,16.377,7.862,24.74c-6.253-6.953-11.345-14.639-16.349-22.551
	c-11.313,1.797-22.558,4.348-34.167,3.425c10.751-1.896,21.626-3.229,32.226-6.899c-4.625-8.826-8.884-17.457-11.773-27.035
	c-11.879,2.271-23.669,4.666-35.787,3.816c11.454-1.724,22.833-3.776,34.225-7.195c-0.336-4.367-2.138-8.483-2.848-12.81
	c-2.941-17.927-2.648-35.691,3.54-52.969c4.987-13.924,12.742-26.179,22.636-37.244c13.323-14.899,29.123-26.527,46.165-36.666
	c0.454-0.27,0.88-0.606,1.709-0.314C64.253,35.383,46.114,80.034,50.253,134.354c4.736-2.116,9.085-3.928,12.959-6.701
	c3.827-2.454,7.686-4.86,11.472-7.378c2.975-1.979,6.24-3.582,8.604-6.39c7.135-4.363,12.864-10.201,16.251-17.789
	c3.221-7.216,0.961-13.12-5.59-17.729c-0.806-0.568-1.97-0.706-2.679-2.207c8.556,0.403,16.75,0.859,24.063,5.28
	c5.103,3.086,5.73,9.53,1.897,15.443c-2.124,3.277-4.853,6.059-7.577,9.449c6.276,0.314,11.968,1.151,17.46,3.253
	c7.978,3.054,10.122,9.02,5.787,16.426c-4.563,7.799-11.047,13.688-18.428,18.649c-5.694,3.826-11.553,7.407-17.338,11.097
	C89.219,159.38,81.495,163.424,73.379,166.609z M86.314,123.017c-7.318,3.706-14.638,7.412-21.956,11.119
	c-4.665,0.966-8.684,3.687-13.375,4.615c1.153,9.906,3.159,19.348,5.7,28.861c5.432-1.517,10.231-3.615,14.875-6.102
	c2.868-1.579,5.853-2.98,8.579-4.777c4.946-3.263,10.261-5.988,14.763-9.914c7.604-4.674,14.068-10.516,18.733-18.221
	c5.024-8.297,2.85-16.178-5.77-20.787c-1.052,0.898-2.108,1.793-3.156,2.695C99.051,115.376,92.34,118.692,86.314,123.017z"/>
<path fill-rule="evenodd" clip-rule="evenodd" fill="#01B8DD" d="M73.379,166.609c8.116-3.185,15.84-7.229,23.754-10.854
	c2.128,4.403,2.336,9.258,3.033,13.952c1.08,7.263,2.073,14.562,2.068,21.934c-0.008,16.001-2.323,31.575-8.772,46.358
	c-6.073,13.922-15.129,25.511-27.227,34.711c-1.096,0.834-2.178,1.688-3.285,2.507c-1.087,0.805-2.197,1.577-3.99,2.859
	C78.366,242.278,83.988,205.455,73.379,166.609z"/>
<path fill-rule="evenodd" clip-rule="evenodd" fill="#01B8DD" d="M83.287,113.884c-2.363,2.809-5.628,4.412-8.604,6.39
	c-3.786,2.518-7.645,4.924-11.472,7.378c-1.291-11.583-1.61-23.19-0.061-34.757c2.963-22.124,11.131-41.876,26.957-58.074
	c3.13-3.204,6.444-6.172,9.92-8.977c0.148,0.184,0.295,0.365,0.444,0.547c-3.824,5.705-8.147,11.049-11.264,17.256
	c-4.813,9.582-7.919,19.596-9.391,30.212c-1.617,11.664-0.34,23.103,1.978,34.505C82.173,110.229,82.784,112.045,83.287,113.884z"/>
<path fill-rule="evenodd" clip-rule="evenodd" fill="#01B8DD" d="M100.772,25.347c0.251-0.046,0.702-0.172,0.721-0.125
	c0.163,0.408-0.202,0.392-0.449,0.465C100.95,25.577,100.858,25.463,100.772,25.347z"/>
<path fill-rule="evenodd" clip-rule="evenodd" fill="#01B8DD" d="M101.044,25.687c-0.191,0.235-0.382,0.469-0.572,0.705
	c-0.149-0.182-0.296-0.363-0.444-0.547c0.249-0.165,0.499-0.33,0.746-0.496C100.858,25.463,100.95,25.577,101.044,25.687z"/>
<path fill-rule="evenodd" clip-rule="evenodd" fill="#01B8DD" d="M94.9,146.819c-4.502,3.926-9.817,6.651-14.763,9.914
	c-2.726,1.797-5.711,3.198-8.58,4.779c-0.125-0.509-0.19-1.044-0.387-1.524c-3.412-8.318-5.629-16.948-6.812-25.852
	c7.318-3.707,14.638-7.413,21.956-11.118C89.538,130.822,93.31,138.427,94.9,146.819z"/>
<g>
	<path fill="#02306F" d="M147.902,128.429V77.438h16.521c6.261,0,10.342,0.255,12.244,0.765c2.922,0.765,5.368,2.429,7.339,4.992
		c1.971,2.562,2.956,5.872,2.956,9.93c0,3.13-0.568,5.762-1.704,7.896c-1.136,2.133-2.58,3.809-4.331,5.026
		c-1.751,1.217-3.53,2.023-5.339,2.417c-2.458,0.487-6.018,0.73-10.679,0.73h-6.712v19.235H147.902z M158.198,86.063v14.47h5.635
		c4.058,0,6.771-0.267,8.139-0.8s2.441-1.368,3.218-2.504c0.777-1.136,1.165-2.458,1.165-3.965c0-1.855-0.545-3.386-1.635-4.592
		c-1.09-1.206-2.469-1.959-4.139-2.261c-1.229-0.231-3.699-0.348-7.409-0.348H158.198z"/>
	<path fill="#02306F" d="M195.45,128.429V77.438h21.67c5.449,0,9.409,0.458,11.877,1.374c2.47,0.916,4.447,2.545,5.93,4.887
		c1.485,2.342,2.227,5.02,2.227,8.035c0,3.826-1.125,6.985-3.374,9.479c-2.25,2.493-5.611,4.063-10.087,4.713
		c2.226,1.299,4.063,2.725,5.512,4.278c1.45,1.554,3.403,4.313,5.862,8.278l6.226,9.948H228.98l-7.444-11.096
		c-2.643-3.965-4.452-6.464-5.426-7.496c-0.974-1.032-2.006-1.739-3.095-2.122c-1.089-0.383-2.817-0.574-5.183-0.574h-2.087v21.287
		H195.45z M205.745,99.002h7.617c4.94,0,8.024-0.208,9.253-0.626c1.229-0.417,2.19-1.136,2.887-2.157
		c0.695-1.02,1.042-2.295,1.042-3.826c0-1.716-0.457-3.102-1.373-4.157c-0.917-1.055-2.209-1.721-3.878-2
		c-0.835-0.116-3.339-0.174-7.513-0.174h-8.035V99.002z"/>
	<path fill="#02306F" d="M244.771,103.246c0-5.194,0.777-9.553,2.33-13.079c1.16-2.597,2.742-4.927,4.748-6.991
		c2.006-2.063,4.203-3.594,6.592-4.591c3.177-1.345,6.841-2.018,10.991-2.018c7.513,0,13.524,2.33,18.034,6.991
		s6.766,11.142,6.766,19.443c0,8.232-2.238,14.673-6.714,19.322c-4.475,4.649-10.457,6.974-17.947,6.974
		c-7.582,0-13.611-2.313-18.087-6.939C247.01,117.733,244.771,111.362,244.771,103.246z M255.381,102.898
		c0,5.774,1.333,10.151,4,13.13c2.666,2.98,6.051,4.47,10.156,4.47c4.104,0,7.472-1.478,10.104-4.435
		c2.633-2.957,3.948-7.391,3.948-13.304c0-5.843-1.281-10.203-3.844-13.079c-2.562-2.875-5.965-4.313-10.208-4.313
		c-4.244,0-7.665,1.455-10.261,4.365C256.679,92.643,255.381,97.032,255.381,102.898z"/>
	<path fill="#02306F" d="M325.988,109.681v-8.592h22.192v20.313c-2.157,2.087-5.282,3.925-9.374,5.513
		c-4.094,1.589-8.238,2.383-12.436,2.383c-5.333,0-9.981-1.119-13.947-3.357c-3.966-2.237-6.945-5.438-8.938-9.6
		c-1.995-4.162-2.993-8.69-2.993-13.583c0-5.31,1.114-10.029,3.34-14.157c2.227-4.127,5.484-7.293,9.774-9.496
		c3.27-1.692,7.339-2.539,12.208-2.539c6.331,0,11.275,1.328,14.835,3.983c3.56,2.655,5.85,6.324,6.87,11.008l-10.226,1.913
		c-0.72-2.504-2.07-4.481-4.053-5.93c-1.983-1.449-4.458-2.174-7.427-2.174c-4.498,0-8.075,1.426-10.729,4.278
		c-2.655,2.852-3.982,7.084-3.982,12.695c0,6.052,1.345,10.591,4.034,13.617c2.689,3.026,6.214,4.539,10.573,4.539
		c2.157,0,4.319-0.423,6.487-1.27c2.169-0.847,4.028-1.873,5.583-3.078v-6.469H325.988z"/>
	<path fill="#02306F" d="M357.711,128.429V77.438h21.669c5.449,0,9.409,0.458,11.878,1.374c2.47,0.916,4.446,2.545,5.932,4.887
		c1.483,2.342,2.226,5.02,2.226,8.035c0,3.826-1.125,6.985-3.374,9.479c-2.25,2.493-5.612,4.063-10.087,4.713
		c2.226,1.299,4.063,2.725,5.513,4.278s3.402,4.313,5.861,8.278l6.226,9.948h-12.313l-7.444-11.096
		c-2.644-3.965-4.452-6.464-5.426-7.496c-0.974-1.032-2.006-1.739-3.096-2.122c-1.09-0.383-2.817-0.574-5.183-0.574h-2.087v21.287
		H357.711z M368.006,99.002h7.618c4.938,0,8.022-0.208,9.252-0.626c1.229-0.417,2.19-1.136,2.887-2.157
		c0.695-1.02,1.043-2.295,1.043-3.826c0-1.716-0.458-3.102-1.373-4.157c-0.917-1.055-2.21-1.721-3.879-2
		c-0.835-0.116-3.339-0.174-7.513-0.174h-8.035V99.002z"/>
	<path fill="#02306F" d="M409.118,128.429V77.438h37.81v8.626h-27.514v11.304h25.601v8.591h-25.601v13.878h28.487v8.591H409.118z"/>
	<path fill="#02306F" d="M454.023,111.837l10.018-0.974c0.603,3.362,1.825,5.832,3.669,7.409c1.843,1.577,4.331,2.365,7.461,2.365
		c3.316,0,5.814-0.701,7.496-2.104c1.681-1.403,2.521-3.044,2.521-4.922c0-1.206-0.354-2.231-1.06-3.078
		c-0.708-0.846-1.942-1.582-3.705-2.208c-1.206-0.418-3.953-1.16-8.243-2.227c-5.519-1.368-9.391-3.049-11.617-5.043
		c-3.131-2.806-4.695-6.227-4.695-10.261c0-2.597,0.735-5.027,2.208-7.288c1.472-2.261,3.595-3.983,6.365-5.165
		c2.771-1.183,6.115-1.774,10.035-1.774c6.399,0,11.217,1.403,14.452,4.208c3.234,2.806,4.933,6.551,5.096,11.235l-10.296,0.452
		c-0.44-2.62-1.386-4.504-2.835-5.652s-3.623-1.722-6.521-1.722c-2.991,0-5.333,0.615-7.026,1.844
		c-1.09,0.789-1.635,1.844-1.635,3.165c0,1.206,0.51,2.238,1.53,3.096c1.299,1.09,4.452,2.227,9.461,3.409
		c5.009,1.183,8.713,2.406,11.113,3.669c2.4,1.264,4.277,2.991,5.634,5.183c1.357,2.191,2.035,4.899,2.035,8.122
		c0,2.921-0.811,5.658-2.435,8.208c-1.623,2.551-3.919,4.446-6.887,5.687c-2.969,1.241-6.667,1.861-11.096,1.861
		c-6.446,0-11.396-1.49-14.852-4.47C456.759,121.884,454.696,117.542,454.023,111.837z"/>
	<path fill="#02306F" d="M501.536,111.837l10.018-0.974c0.603,3.362,1.825,5.832,3.67,7.409c1.843,1.577,4.329,2.365,7.461,2.365
		c3.315,0,5.813-0.701,7.495-2.104c1.681-1.403,2.521-3.044,2.521-4.922c0-1.206-0.354-2.231-1.061-3.078
		c-0.707-0.846-1.943-1.582-3.705-2.208c-1.205-0.418-3.953-1.16-8.242-2.227c-5.52-1.368-9.393-3.049-11.618-5.043
		c-3.131-2.806-4.696-6.227-4.696-10.261c0-2.597,0.736-5.027,2.21-7.288c1.472-2.261,3.594-3.983,6.364-5.165
		c2.771-1.183,6.116-1.774,10.034-1.774c6.401,0,11.218,1.403,14.453,4.208c3.235,2.806,4.934,6.551,5.095,11.235l-10.295,0.452
		c-0.44-2.62-1.385-4.504-2.835-5.652c-1.449-1.148-3.623-1.722-6.521-1.722c-2.991,0-5.333,0.615-7.026,1.844
		c-1.09,0.789-1.635,1.844-1.635,3.165c0,1.206,0.511,2.238,1.53,3.096c1.299,1.09,4.452,2.227,9.461,3.409
		c5.009,1.183,8.713,2.406,11.113,3.669c2.399,1.264,4.278,2.991,5.635,5.183s2.035,4.899,2.035,8.122
		c0,2.921-0.812,5.658-2.436,8.208c-1.623,2.551-3.918,4.446-6.886,5.687c-2.969,1.241-6.668,1.861-11.097,1.861
		c-6.445,0-11.397-1.49-14.853-4.47C504.271,121.884,502.209,117.542,501.536,111.837z"/>
	<path fill="#02306F" d="M551.344,128.429V77.438h10.296v50.991H551.344z"/>
	<path fill="#02306F" d="M584.457,128.429l-18.226-50.991h11.165l12.904,37.739l12.486-37.739h10.923l-18.262,50.991H584.457z"/>
	<path fill="#02306F" d="M618.961,128.429V77.438h37.81v8.626h-27.514v11.304h25.601v8.591h-25.601v13.878h28.487v8.591H618.961z"/>
	<path fill="#01B8DD" d="M147.902,199.833v-50.99h10.296v50.99H147.902z"/>
	<path fill="#01B8DD" d="M168.111,199.833v-50.99h10.017l20.869,34.052v-34.052h9.566v50.99h-10.331l-20.556-33.251v33.251H168.111z
		"/>
	<path fill="#01B8DD" d="M219.416,148.842h18.817c4.244,0,7.478,0.324,9.705,0.974c2.99,0.881,5.553,2.446,7.686,4.696
		c2.133,2.249,3.758,5.002,4.87,8.26c1.112,3.259,1.669,7.275,1.669,12.052c0,4.197-0.521,7.815-1.564,10.853
		c-1.275,3.711-3.096,6.714-5.461,9.009c-1.785,1.739-4.197,3.096-7.234,4.069c-2.272,0.719-5.311,1.078-9.113,1.078h-19.374
		V148.842z M229.71,157.467v33.774h7.688c2.875,0,4.95-0.162,6.226-0.486c1.669-0.418,3.055-1.125,4.157-2.122
		c1.101-0.998,1.999-2.638,2.694-4.922c0.696-2.285,1.044-5.396,1.044-9.339s-0.348-6.969-1.044-9.079
		c-0.695-2.109-1.669-3.757-2.921-4.938c-1.252-1.183-2.842-1.982-4.766-2.4c-1.438-0.324-4.255-0.487-8.452-0.487H229.71z"/>
	<path fill="#01B8DD" d="M270.824,148.842h10.295v27.616c0,4.384,0.127,7.224,0.383,8.522c0.44,2.087,1.489,3.762,3.147,5.026
		c1.657,1.264,3.924,1.896,6.8,1.896c2.922,0,5.125-0.598,6.609-1.791c1.483-1.195,2.377-2.661,2.678-4.401
		c0.302-1.738,0.453-4.626,0.453-8.659v-28.209h10.294v26.782c0,6.121-0.277,10.446-0.834,12.974
		c-0.557,2.528-1.582,4.661-3.077,6.4c-1.496,1.739-3.497,3.124-6.002,4.156c-2.504,1.031-5.773,1.548-9.808,1.548
		c-4.87,0-8.563-0.563-11.078-1.688c-2.517-1.125-4.504-2.585-5.965-4.382c-1.462-1.797-2.423-3.682-2.887-5.653
		c-0.673-2.921-1.009-7.234-1.009-12.938V148.842z"/>
	<path fill="#01B8DD" d="M319.728,183.242l10.018-0.974c0.603,3.362,1.826,5.831,3.67,7.409c1.844,1.576,4.33,2.364,7.461,2.364
		c3.315,0,5.814-0.702,7.495-2.104c1.682-1.404,2.522-3.044,2.522-4.923c0-1.205-0.354-2.23-1.062-3.077
		c-0.707-0.847-1.941-1.583-3.704-2.21c-1.206-0.417-3.954-1.159-8.243-2.226c-5.52-1.368-9.392-3.049-11.618-5.043
		c-3.13-2.806-4.695-6.227-4.695-10.262c0-2.597,0.735-5.025,2.209-7.286c1.472-2.261,3.594-3.983,6.365-5.165
		c2.771-1.183,6.116-1.773,10.035-1.773c6.399,0,11.217,1.402,14.451,4.207c3.235,2.806,4.934,6.551,5.097,11.235l-10.296,0.453
		c-0.441-2.621-1.386-4.506-2.835-5.653c-1.449-1.146-3.623-1.722-6.522-1.722c-2.991,0-5.333,0.614-7.025,1.844
		c-1.09,0.788-1.635,1.843-1.635,3.165c0,1.206,0.51,2.237,1.529,3.096c1.3,1.091,4.453,2.226,9.462,3.409
		c5.009,1.183,8.713,2.405,11.113,3.669c2.399,1.264,4.277,2.991,5.634,5.183s2.035,4.898,2.035,8.122
		c0,2.922-0.812,5.658-2.435,8.208c-1.623,2.552-3.919,4.447-6.887,5.688c-2.969,1.241-6.667,1.86-11.096,1.86
		c-6.446,0-11.397-1.489-14.853-4.469C322.465,193.289,320.4,188.946,319.728,183.242z"/>
	<path fill="#01B8DD" d="M381.328,199.833v-42.365h-15.131v-8.625h40.521v8.625h-15.095v42.365H381.328z"/>
	<path fill="#01B8DD" d="M413.397,199.833v-50.99h21.669c5.449,0,9.409,0.458,11.879,1.373c2.469,0.916,4.445,2.545,5.931,4.888
		c1.483,2.342,2.226,5.021,2.226,8.034c0,3.826-1.125,6.985-3.374,9.479c-2.25,2.493-5.611,4.064-10.087,4.713
		c2.226,1.299,4.063,2.725,5.513,4.278s3.403,4.313,5.861,8.278l6.226,9.947h-12.313l-7.443-11.095
		c-2.645-3.966-4.453-6.465-5.427-7.495c-0.974-1.032-2.006-1.74-3.096-2.122c-1.089-0.383-2.817-0.574-5.183-0.574h-2.086v21.286
		H413.397z M423.693,170.408h7.617c4.938,0,8.022-0.21,9.252-0.627s2.191-1.137,2.887-2.156c0.695-1.021,1.044-2.296,1.044-3.826
		c0-1.716-0.459-3.102-1.374-4.157c-0.917-1.055-2.21-1.721-3.879-1.999c-0.835-0.116-3.339-0.175-7.513-0.175h-8.034V170.408z"/>
	<path fill="#01B8DD" d="M464.492,199.833v-50.99h10.296v50.99H464.492z"/>
	<path fill="#01B8DD" d="M484.597,199.833v-50.99h37.81v8.625h-27.514v11.306h25.6v8.591h-25.6v13.878h28.487v8.591H484.597z"/>
	<path fill="#01B8DD" d="M529.501,183.242l10.017-0.974c0.604,3.362,1.827,5.831,3.67,7.409c1.844,1.576,4.33,2.364,7.461,2.364
		c3.316,0,5.815-0.702,7.496-2.104c1.682-1.404,2.521-3.044,2.521-4.923c0-1.205-0.354-2.23-1.062-3.077
		c-0.706-0.847-1.94-1.583-3.704-2.21c-1.205-0.417-3.953-1.159-8.243-2.226c-5.519-1.368-9.392-3.049-11.617-5.043
		c-3.13-2.806-4.695-6.227-4.695-10.262c0-2.597,0.736-5.025,2.209-7.286c1.472-2.261,3.594-3.983,6.364-5.165
		c2.771-1.183,6.116-1.773,10.035-1.773c6.4,0,11.218,1.402,14.452,4.207c3.235,2.806,4.934,6.551,5.096,11.235l-10.296,0.453
		c-0.44-2.621-1.385-4.506-2.834-5.653c-1.449-1.146-3.623-1.722-6.521-1.722c-2.991,0-5.334,0.614-7.026,1.844
		c-1.091,0.788-1.635,1.843-1.635,3.165c0,1.206,0.51,2.237,1.53,3.096c1.298,1.091,4.452,2.226,9.461,3.409
		c5.009,1.183,8.713,2.405,11.113,3.669c2.399,1.264,4.277,2.991,5.634,5.183s2.035,4.898,2.035,8.122
		c0,2.922-0.813,5.658-2.435,8.208c-1.623,2.552-3.919,4.447-6.888,5.688c-2.968,1.241-6.666,1.86-11.095,1.86
		c-6.447,0-11.396-1.489-14.853-4.469C532.237,193.289,530.173,188.946,529.501,183.242z"/>
</g>
</svg>
